<svg id="splash" width="1024px" height="128px" viewBox="0 0 1024 128" version="1.1" xmlns="http://www.w3.org/2000/svg" xmlns:xlink="http://www.w3.org/1999/xlink" xml:space="preserve" xmlns:serif="http://www.serif.com/" style="fill-rule:evenodd;clip-rule:evenodd;stroke-linejoin:round;stroke-miterlimit:1.41421;"><path class="url" d="M0,107.438c0,5.834 3.988,9.677 10.112,9.677c5.982,0 10.109,-3.843 10.109,-9.677c0,-5.978 -4.127,-9.82 -10.109,-9.82c-6.124,0 -10.112,3.842 -10.112,9.82Z"/><path d="M37.6,44.07l0,71.193l17.357,0l0,-32.045c0,-12.676 5.273,-25.209 18.669,-25.209c9.263,0 10.973,7.264 10.973,15.382l0,41.872l17.358,0l0,-32.045c0,-12.533 4.702,-25.209 18.383,-25.209c8.836,0 11.258,6.979 11.258,15.382l0,41.872l17.358,0l0,-44.578c0,-18.509 -8.11,-28.467 -24.768,-28.467c-10.403,0 -19.381,6.829 -24.365,15.222c-2.277,-7.966 -8.252,-12.803 -15.794,-14.368c-2.28,-0.569 -4.703,-0.712 -7.126,-0.569c-10.545,0.569 -19.666,7.255 -23.084,15.791l-0.284,0c0,-0.569 0.569,-2.418 0.569,-5.121l-0.427,-9.103l-16.077,0Z"/><path d="M169.91,44.052l0,71.211l17.372,0l0,-71.211l-17.372,0Zm-1.424,-20.497c0,5.834 3.988,9.677 10.112,9.677c5.98,0 10.107,-3.843 10.107,-9.677c0,-5.978 -4.127,-9.821 -10.107,-9.821c-6.124,0 -10.112,3.843 -10.112,9.821Z"/><path d="M262.894,101.323l-35.168,0l35.168,-57.253l-58.234,0l0,13.939l32.321,0l-35.168,57.254l61.081,0l0,-13.94Z"/><path d="M342.508,115.263l0,-71.193l-17.215,0l0,35.311c0,12.542 -8.265,21.942 -19.808,21.942c-9.69,0 -11.543,-7.263 -11.543,-15.666l0,-41.587l-17.357,0l0,44.578c0,18.366 7.825,28.466 24.482,28.466c13.253,0 22.516,-9.531 25.364,-16.075l0.285,0c-0.143,0.555 -0.569,2.406 -0.569,5.254l0.426,8.97l15.935,0Z"/><path d="M377.402,79.666c0,-13.25 8.972,-22.227 21.79,-22.227c8.261,0 15.382,3.135 19.797,6.127l0,-15.942c-3.56,-1.849 -10.397,-5.406 -21.648,-5.406c-22.358,0 -37.582,15.934 -37.582,37.448c0,21.515 15.224,37.448 37.582,37.448c11.251,0 18.515,-3.698 22.075,-5.547l0,-15.801c-3.56,2.28 -11.108,6.127 -20.224,6.127c-12.96,0 -21.79,-8.976 -21.79,-22.227Z"/><path d="M467.849,42.218c-21.514,0 -37.306,15.934 -37.306,37.448c0,21.515 15.792,37.448 37.306,37.448c21.656,0 37.306,-15.933 37.306,-37.448c0,-21.514 -15.65,-37.448 -37.306,-37.448Zm0,60.102c-11.826,0 -20.803,-9.261 -20.803,-22.654c0,-13.393 8.977,-22.654 20.803,-22.654c11.969,0 20.803,9.261 20.803,22.654c0,13.393 -8.834,22.654 -20.803,22.654Z"/><path d="M514.573,44.07l0,13.797l9.827,0l0,57.396l17.357,0l0,-57.396l17.091,0l0,-13.797l-17.803,0l0,-5.418c0,-8.411 5.27,-12.973 13.388,-12.973c3.418,0 6.124,0.57 7.264,0.855l0,-14.794c-1.14,-0.286 -4.7,-0.855 -9.115,-0.855c-17.512,0 -27.613,10.242 -27.613,26.056l0,7.129l-10.396,0Z"/><path d="M564.42,44.07l0,13.797l9.828,0l0,57.396l17.357,0l0,-57.396l17.091,0l0,-13.797l-17.803,0l0,-5.418c0,-8.411 5.27,-12.973 13.388,-12.973c3.418,0 6.124,0.57 7.263,0.855l0,-14.794c-1.139,-0.286 -4.7,-0.855 -9.115,-0.855c-17.511,0 -27.612,10.242 -27.612,26.056l0,7.129l-10.397,0Z"/><path d="M651.859,42.218c-20.088,0 -35.597,15.936 -35.597,37.446c0,21.944 15.224,37.45 38.875,37.45c11.97,0 21.503,-2.845 26.482,-5.547l0,-15.234c-4.837,2.994 -15.225,5.987 -25.2,5.987c-13.11,0 -21.659,-7.127 -22.087,-19.102l49.706,0c0,-1.28 0.427,-4.407 0.427,-7.677c0,-17.673 -11.24,-33.323 -32.606,-33.323Zm15.818,30.906l-33.345,0c0.855,-8.982 6.982,-16.966 17.242,-16.966c10.688,0 16.245,7.984 16.103,16.966Z"/><path d="M731.189,42.218c-20.089,0 -35.597,15.936 -35.597,37.446c0,21.944 15.224,37.45 38.874,37.45c11.97,0 21.503,-2.845 26.483,-5.547l0,-15.234c-4.838,2.994 -15.225,5.987 -25.2,5.987c-13.11,0 -21.66,-7.127 -22.088,-19.102l49.706,0c0,-1.28 0.427,-4.407 0.427,-7.677c0,-17.673 -11.239,-33.323 -32.605,-33.323Zm15.817,30.906l-33.345,0c0.855,-8.982 6.983,-16.966 17.243,-16.966c10.687,0 16.244,7.984 16.102,16.966Z"/><path d="M775.206,107.438c0,5.834 3.988,9.677 10.112,9.677c5.981,0 10.109,-3.843 10.109,-9.677c0,-5.978 -4.128,-9.82 -10.109,-9.82c-6.124,0 -10.112,3.842 -10.112,9.82Z"/><path d="M812.805,44.07l0,71.193l17.358,0l0,-35.312c0,-12.542 8.408,-21.942 20.235,-21.942c9.691,0 11.685,7.406 11.685,15.667l0,41.587l17.358,0l0,-44.578c0,-18.366 -7.825,-28.467 -24.625,-28.467c-13.538,0 -22.943,9.532 -25.791,16.076l-0.285,0c0,-0.556 0.569,-2.407 0.569,-5.112l-0.426,-9.112l-16.078,0Z"/><path d="M930.295,42.218c-20.088,0 -35.597,15.936 -35.597,37.446c0,21.944 15.224,37.45 38.875,37.45c11.97,0 21.503,-2.845 26.482,-5.547l0,-15.234c-4.837,2.994 -15.225,5.987 -25.2,5.987c-13.11,0 -21.659,-7.127 -22.087,-19.102l49.706,0c0,-1.28 0.427,-4.407 0.427,-7.677c0,-17.673 -11.24,-33.323 -32.606,-33.323Zm15.818,30.906l-33.345,0c0.855,-8.982 6.982,-16.966 17.242,-16.966c10.688,0 16.245,7.984 16.103,16.966Z"/><path d="M973.458,44.07l0,13.797l10.824,0l0,31.488c0,2.422 0.142,4.844 0.142,7.124c0.854,15.372 11.667,20.635 22.485,20.635c7.691,0 13.815,-1.564 17.091,-3.271l0,-14.515c-3.561,1.568 -8.403,2.992 -12.818,2.992c-5.27,0 -9.827,-2.992 -9.827,-11.825l0,-32.628l20.224,0l0,-13.797l-20.224,0l0,-21.364l-16.789,0l0,21.364l-11.108,0Z"/></svg>
